<svg width="35" height="35" viewBox="0 0 35 35" fill="none" xmlns="http://www.w3.org/2000/svg">
<circle cx="17.5" cy="17.5" r="17.5" fill="black"/>
<g clip-path="url(#clip0_1_258)">
<path d="M19.5583 23.6457L19.5424 16.8986L15.5585 16.7645L15.0837 23.4999C14.721 23.5649 14.4505 23.8707 14.4289 24.2391L13.9702 28.3996C13.9136 28.923 14.229 29.3811 14.6517 29.3954L19.5906 29.5592C20.0158 29.5711 20.3537 29.1423 20.3401 28.6092L20.1764 24.4423C20.1861 24.0639 19.928 23.7311 19.5587 23.6457L19.5583 23.6457Z" fill="white"/>
<path d="M21.2754 9.98934L14.668 9.75717C14.4037 9.75009 14.1568 9.62566 13.9936 9.41828C13.6562 8.96306 13.1286 8.6881 12.5619 8.67206C11.5282 8.63846 10.6618 9.44835 10.6258 10.482L10.5471 12.819C10.5153 13.8521 11.324 14.7172 12.357 14.7551C12.9218 14.7753 13.4642 14.5376 13.8331 14.1092C14.0094 13.9127 14.2653 13.8052 14.5288 13.8165C14.6758 13.8214 14.8148 13.8845 14.9151 13.9918C15.0154 14.0991 15.069 14.242 15.0641 14.389L15.0169 15.7883L20.1476 15.9611L20.1879 14.5494C20.1922 14.403 20.2552 14.2641 20.3619 14.1643C20.4687 14.0645 20.6115 14.011 20.7579 14.0165L24.771 14.1517L24.7777 13.736C24.8082 12.7758 24.4572 11.8416 23.8006 11.1391C23.1439 10.4367 22.2354 10.0236 21.2753 9.98951L21.2754 9.98934Z" fill="white"/>
</g>
<defs>
<clipPath id="clip0_1_258">
<rect width="22" height="22" fill="white" transform="translate(17.5236 2.45239) rotate(46.9289)"/>
</clipPath>
</defs>
</svg>
